# xmcd
#
# Track frame offsets:
#	150
#	19669
#	38579
#	56359
#	74403
#	92927
#	111310
#	133339
#	158230
#	178961
#	201423
#	219878
#
# Disc length: 3146 seconds
#
# Revision: 0
# Processed by: cddbd v1.5.2PL0 Copyright (c) Steve Scherf et al.
# Submitted via: EZCDAudioConverter 1.3.3.1
#
DISCID=b00c480c
DTITLE=William White - Evolution
DYEAR=2009
DGENRE=
TTITLE0=Take It Or Leave It
TTITLE1=Sweet Love
TTITLE2=Can't Stop Loving You
TTITLE3=Just For Me
TTITLE4=Time To Make A Change
TTITLE5=Try A Little Love
TTITLE6=Mellowson
TTITLE7=Someone To Hold You
TTITLE8=Evolution
TTITLE9=All In All
TTITLE10=If Only I Could
TTITLE11=Mercy
EXTD=
EXTT0=
EXTT1=
EXTT2=
EXTT3=
EXTT4=
EXTT5=
EXTT6=
EXTT7=
EXTT8=
EXTT9=
EXTT10=
EXTT11=
PLAYORDER=
